<svg width="20" height="19" viewBox="0 0 20 19" fill="none" xmlns="http://www.w3.org/2000/svg">
<path fill-rule="evenodd" clip-rule="evenodd" d="M10 0C15.2432 0 19.5 4.25679 19.5 9.5C19.5 14.7432 15.2432 19 10 19C4.75679 19 0.5 14.7432 0.5 9.5C0.5 4.25679 4.75679 0 10 0ZM16.4339 15.3663C16.2106 15.0488 15.8227 14.8485 15.1482 14.6933C12.1019 13.9761 11.9048 13.505 11.7029 13.0633C11.4978 12.616 11.5525 12.0895 11.8652 11.4982C13.2316 8.91971 13.5198 6.72917 12.6782 5.33108C12.1446 4.44521 11.1938 3.95833 10 3.95833C8.79588 3.95833 7.83717 4.45392 7.30121 5.35404C6.45729 6.77033 6.75258 8.95138 8.13167 11.495C8.44992 12.0824 8.5085 12.6081 8.30583 13.0578C8.09604 13.5217 7.82212 13.9998 4.85021 14.6933C4.17571 14.8485 3.78779 15.0488 3.56533 15.3647C5.15817 17.1119 7.45242 18.2083 10 18.2083C12.5476 18.2083 14.841 17.1119 16.4339 15.3663ZM16.9485 14.7472C18.0528 13.2873 18.7083 11.4697 18.7083 9.5C18.7083 4.69379 14.8062 0.791667 10 0.791667C5.19379 0.791667 1.29167 4.69379 1.29167 9.5C1.29167 11.4689 1.94638 13.2865 3.05075 14.7456C3.37454 14.3878 3.88121 14.1043 4.67287 13.9215C6.276 13.5557 7.34554 13.2596 7.58463 12.7324C7.68121 12.517 7.63292 12.2352 7.43579 11.8718C5.91817 9.07329 5.62921 6.61438 6.62038 4.94871C7.29567 3.81583 8.52671 3.16667 10 3.16667C11.4606 3.16667 12.6845 3.80633 13.3567 4.92258C14.347 6.56846 14.066 9.03529 12.565 11.8687C12.371 12.2352 12.3243 12.5186 12.4233 12.7348C12.6648 13.2636 13.7248 13.5565 15.3263 13.9215C16.118 14.1035 16.6247 14.3885 16.9485 14.7472Z" fill="#4D5959"/>
</svg>
