<svg width="8" height="15" viewBox="0 0 8 15" fill="none" xmlns="http://www.w3.org/2000/svg">
<path d="M2.45236 0.765807C3.03199 0.213884 3.85645 0.0274681 4.63418 0.00423375C5.45673 -0.00316226 6.27895 0.00131148 7.10149 0.00163618C7.10474 0.869351 7.10503 1.73739 7.10117 2.60507C6.56959 2.60413 6.03766 2.60637 5.50608 2.60413C5.169 2.58313 4.82287 2.83864 4.76161 3.17279C4.75353 3.7534 4.75869 4.33433 4.75901 4.91497C5.53866 4.91818 6.31831 4.914 7.09792 4.91692C7.04084 5.75685 6.93665 6.59296 6.81442 7.42583C6.12576 7.43229 5.4367 7.42518 4.74808 7.4294C4.74195 9.9067 4.75129 12.384 4.74325 14.8613C3.72036 14.8655 2.69686 14.8594 1.67401 14.8642C1.65463 12.3866 1.6756 9.90768 1.66337 7.42972C1.16433 7.42453 0.665012 7.4333 0.166016 7.42554C0.167928 6.59268 0.166665 5.75985 0.166953 4.92727C0.665625 4.92118 1.16466 4.92857 1.66337 4.92374C1.67852 4.11407 1.64818 3.30347 1.67917 2.49449C1.72917 1.85381 1.97335 1.20834 2.45236 0.765807Z" fill="white"/>
</svg>
