<svg width="23" height="26" viewBox="0 0 23 26" fill="none" xmlns="http://www.w3.org/2000/svg">
<path d="M22.7562 24.7908L21.723 8.59184C21.6924 8.31633 21.4603 8.10714 21.1822 8.10714H16.8455V5.93622C16.848 2.93367 14.4143 0.5 11.4118 0.5C8.40924 0.5 5.97557 2.93367 5.97557 5.93622V8.10714H1.6669C1.39139 8.10714 1.15669 8.31378 1.12608 8.58929L0.00363105 24.8954C-0.0142261 25.0485 0.0342434 25.2041 0.138835 25.3189C0.240876 25.4337 0.388835 25.5 0.544447 25.5H22.2281C22.2332 25.5 22.2358 25.5 22.2383 25.5C22.5393 25.5 22.7817 25.2551 22.7817 24.9566C22.7817 24.898 22.774 24.8418 22.7562 24.7908ZM7.0623 5.93622C7.0623 3.53571 9.00873 1.58673 11.4118 1.58673C13.8123 1.58673 15.7613 3.53316 15.7613 5.93622V8.10714H7.0623V5.93622ZM1.15159 24.4133L2.15159 9.19388H5.97557V10.4286C5.65159 10.6173 5.4322 10.9668 5.4322 11.3699C5.4322 11.9694 5.91945 12.4566 6.51894 12.4566C7.11843 12.4566 7.60567 11.9694 7.60567 11.3699C7.60567 10.9668 7.38628 10.6173 7.0623 10.4286V9.19388H15.7587V10.4286C15.4348 10.6173 15.2154 10.9668 15.2154 11.3699C15.2154 11.9694 15.7026 12.4566 16.3021 12.4566C16.9016 12.4566 17.3888 11.9694 17.3888 11.3699C17.3888 10.9668 17.1694 10.6173 16.8455 10.4286V9.19388H20.695L21.621 24.4133H1.15159Z" fill="#474747"/>
</svg>
