<svg width="28" height="26" viewBox="0 0 28 26" fill="none" xmlns="http://www.w3.org/2000/svg">
<path fill-rule="evenodd" clip-rule="evenodd" d="M14 23.9011C7.43167 17.6068 1.16667 12.2 1.16667 7.53523C1.16667 3.22727 4.746 1.63636 7.32783 1.63636C8.8585 1.63636 12.1707 2.20568 14 6.70114C15.855 2.19205 19.208 1.64773 20.6803 1.64773C23.6437 1.64773 26.8333 3.48977 26.8333 7.53523C26.8333 12.1591 20.8413 17.3364 14 23.9011ZM20.6803 0.511364C18.1102 0.511364 15.4933 1.69545 14 4.19091C12.5008 1.68409 9.891 0.5 7.32783 0.5C3.61433 0.5 0 2.98523 0 7.53523C0 12.8318 6.4995 18.25 14 25.5C21.5017 18.25 28 12.8318 28 7.53523C28 2.97727 24.3892 0.511364 20.6803 0.511364Z" fill="#474747"/>
</svg>
