<svg width="25" height="26" viewBox="0 0 25 26" fill="none" xmlns="http://www.w3.org/2000/svg">
<path fill-rule="evenodd" clip-rule="evenodd" d="M12.5 0.5C19.399 0.5 25 6.10104 25 13C25 19.899 19.399 25.5 12.5 25.5C5.60104 25.5 0 19.899 0 13C0 6.10104 5.60104 0.5 12.5 0.5ZM20.9656 20.7188C20.6719 20.301 20.1615 20.0375 19.274 19.8333C15.2656 18.8896 15.0063 18.2698 14.7406 17.6885C14.4708 17.1 14.5427 16.4073 14.9542 15.6292C16.7521 12.2365 17.1313 9.35417 16.024 7.51458C15.3219 6.34896 14.0708 5.70833 12.5 5.70833C10.9156 5.70833 9.65417 6.36042 8.94896 7.54479C7.83854 9.40833 8.22708 12.2781 10.0417 15.625C10.4604 16.3979 10.5375 17.0896 10.2708 17.6812C9.99479 18.2917 9.63437 18.9208 5.72396 19.8333C4.83646 20.0375 4.32604 20.301 4.03333 20.7167C6.12917 23.0156 9.14792 24.4583 12.5 24.4583C15.8521 24.4583 18.8698 23.0156 20.9656 20.7188ZM21.6427 19.9042C23.0958 17.9833 23.9583 15.5917 23.9583 13C23.9583 6.67604 18.824 1.54167 12.5 1.54167C6.17604 1.54167 1.04167 6.67604 1.04167 13C1.04167 15.5906 1.90312 17.9823 3.35625 19.9021C3.78229 19.4312 4.44896 19.0583 5.49062 18.8177C7.6 18.3365 9.00729 17.9469 9.32188 17.2531C9.44896 16.9698 9.38542 16.599 9.12604 16.1208C7.12917 12.4385 6.74896 9.20312 8.05313 7.01146C8.94167 5.52083 10.5615 4.66667 12.5 4.66667C14.4219 4.66667 16.0323 5.50833 16.9167 6.97708C18.2198 9.14271 17.85 12.3885 15.875 16.1167C15.6198 16.599 15.5583 16.9719 15.6885 17.2563C16.0063 17.9521 17.401 18.3375 19.5083 18.8177C20.55 19.0573 21.2167 19.4323 21.6427 19.9042Z" fill="#474747"/>
</svg>
