<svg width="25" height="25" viewBox="0 0 25 25" fill="none" xmlns="http://www.w3.org/2000/svg">
<path fill-rule="evenodd" clip-rule="evenodd" d="M16.5135 17.25C14.7604 18.8302 12.4396 19.7917 9.89583 19.7917C4.43437 19.7917 0 15.3573 0 9.89583C0 4.43437 4.43437 0 9.89583 0C15.3573 0 19.7917 4.43437 19.7917 9.89583C19.7917 12.4396 18.8302 14.7604 17.25 16.5135L25 24.2635L24.2635 25L16.5135 17.25ZM9.89583 1.04167C14.7823 1.04167 18.75 5.00938 18.75 9.89583C18.75 14.7823 14.7823 18.75 9.89583 18.75C5.00938 18.75 1.04167 14.7823 1.04167 9.89583C1.04167 5.00938 5.00938 1.04167 9.89583 1.04167Z" fill="#474747"/>
</svg>
