<svg width="16" height="14" viewBox="0 0 16 14" fill="none" xmlns="http://www.w3.org/2000/svg">
<path fill-rule="evenodd" clip-rule="evenodd" d="M8 13.1046C4.24667 9.57982 0.666667 6.552 0.666667 3.93973C0.666667 1.52727 2.712 0.636364 4.18733 0.636364C5.062 0.636364 6.95467 0.955182 8 3.47264C9.06 0.947545 10.976 0.642727 11.8173 0.642727C13.5107 0.642727 15.3333 1.67427 15.3333 3.93973C15.3333 6.52909 11.9093 9.42836 8 13.1046ZM11.8173 0.00636363C10.3487 0.00636363 8.85333 0.669455 8 2.06691C7.14333 0.663091 5.652 0 4.18733 0C2.06533 0 0 1.39173 0 3.93973C0 6.90582 3.714 9.94 8 14C12.2867 9.94 16 6.90582 16 3.93973C16 1.38727 13.9367 0.00636363 11.8173 0.00636363Z" fill="#474747"/>
</svg>
