<svg width="15" height="15" viewBox="0 0 15 15" fill="none" xmlns="http://www.w3.org/2000/svg">
<path d="M0 7.43216C0 10.4755 1.83003 13.0899 4.44872 14.2394C4.42782 13.7204 4.445 13.0974 4.57808 12.5328C4.72098 11.9294 5.53438 8.48299 5.53438 8.48299C5.53438 8.48299 5.29696 8.00844 5.29696 7.3071C5.29696 6.2057 5.9353 5.38312 6.7303 5.38312C7.40633 5.38312 7.73293 5.89088 7.73293 6.49892C7.73293 7.17849 7.29949 8.19499 7.07659 9.13648C6.89038 9.92486 7.47188 10.5679 8.24963 10.5679C9.65777 10.5679 10.6062 8.75931 10.6062 6.61644C10.6062 4.98754 9.50907 3.76834 7.51363 3.76834C5.25916 3.76834 3.85468 5.44961 3.85468 7.32759C3.85468 7.97511 4.04559 8.43172 4.34461 8.78532C4.4821 8.94772 4.50121 9.01304 4.45145 9.19954C4.4158 9.33628 4.33393 9.66549 4.30002 9.79596C4.25055 9.9842 4.09802 10.0515 3.9279 9.98199C2.8895 9.55808 2.40589 8.42092 2.40589 7.1426C2.40589 5.03138 4.18645 2.49984 7.7176 2.49984C10.5551 2.49984 12.4227 4.55317 12.4227 6.7573C12.4227 9.67281 10.8018 11.8509 8.41255 11.8509C7.61018 11.8509 6.85542 11.4172 6.59687 10.9245C6.59687 10.9245 6.16541 12.6369 6.07401 12.9676C5.91643 13.5406 5.608 14.1133 5.32599 14.5597C5.99441 14.757 6.70051 14.8645 7.43234 14.8645C11.5365 14.8645 14.8642 11.537 14.8642 7.43216C14.8642 3.32752 11.5365 0 7.43234 0C3.32782 0 0 3.32752 0 7.43216Z" fill="black"/>
</svg>
