<svg width="15" height="15" viewBox="0 0 15 15" fill="none" xmlns="http://www.w3.org/2000/svg">
<path d="M7.4321 1.33964C9.41647 1.33964 9.65182 1.34707 10.4359 1.38299C12.45 1.47465 13.3908 2.4303 13.4824 4.42953C13.5184 5.213 13.5252 5.44835 13.5252 7.43272C13.5252 9.41771 13.5177 9.65244 13.4824 10.4359C13.3902 12.4333 12.4519 13.3908 10.4359 13.4824C9.65182 13.5184 9.41771 13.5258 7.4321 13.5258C5.44773 13.5258 5.21238 13.5184 4.42891 13.4824C2.40986 13.3902 1.47403 12.4302 1.38237 10.4353C1.34645 9.65182 1.33902 9.41709 1.33902 7.4321C1.33902 5.44773 1.34707 5.213 1.38237 4.42891C1.47465 2.4303 2.41295 1.47403 4.42891 1.38237C5.213 1.34707 5.44773 1.33964 7.4321 1.33964ZM7.4321 0C5.41366 0 5.16097 0.00867078 4.36822 0.0445926C1.66913 0.168461 0.16908 1.66603 0.0452119 4.3676C0.00867078 5.16097 0 5.41366 0 7.4321C0 9.45053 0.00867078 9.70384 0.0445926 10.4966C0.168461 13.1957 1.66603 14.6957 4.3676 14.8196C5.16097 14.8555 5.41366 14.8642 7.4321 14.8642C9.45053 14.8642 9.70384 14.8555 10.4966 14.8196C13.1932 14.6957 14.697 13.1982 14.819 10.4966C14.8555 9.70384 14.8642 9.45053 14.8642 7.4321C14.8642 5.41366 14.8555 5.16097 14.8196 4.36822C14.6982 1.6716 13.1988 0.16908 10.4972 0.0452119C9.70384 0.00867078 9.45053 0 7.4321 0ZM7.4321 3.61572C5.32448 3.61572 3.61572 5.32448 3.61572 7.4321C3.61572 9.53972 5.32448 11.2491 7.4321 11.2491C9.53972 11.2491 11.2485 9.54034 11.2485 7.4321C11.2485 5.32448 9.53972 3.61572 7.4321 3.61572ZM7.4321 9.90947C6.06397 9.90947 4.95473 8.80084 4.95473 7.4321C4.95473 6.06397 6.06397 4.95473 7.4321 4.95473C8.80023 4.95473 9.90947 6.06397 9.90947 7.4321C9.90947 8.80084 8.80023 9.90947 7.4321 9.90947ZM11.3996 2.57336C10.9066 2.57336 10.5071 2.97284 10.5071 3.46522C10.5071 3.95759 10.9066 4.35707 11.3996 4.35707C11.892 4.35707 12.2908 3.95759 12.2908 3.46522C12.2908 2.97284 11.892 2.57336 11.3996 2.57336Z" fill="black"/>
</svg>
