<svg width="16" height="10" viewBox="0 0 16 10" fill="none" xmlns="http://www.w3.org/2000/svg">
<path d="M8.01 1.66659C11.1773 1.66659 13.3853 3.67459 14.346 4.75725C13.412 5.98192 11.204 8.33325 8.01 8.33325C5.06333 8.33325 2.72333 5.97592 1.69133 4.72859C2.68667 3.63059 4.90267 1.66659 8.01 1.66659ZM8.01 0.333252C2.964 0.333252 0 4.70059 0 4.70059C0 4.70059 3.22333 9.66659 8.01 9.66659C13.1653 9.66659 16 4.70059 16 4.70059C16 4.70059 13.1393 0.333252 8.01 0.333252ZM8 2.33325C6.52667 2.33325 5.33333 3.52725 5.33333 4.99992C5.33333 6.47259 6.52667 7.66659 8 7.66659C9.47267 7.66659 10.6667 6.47259 10.6667 4.99992C10.6667 3.52725 9.47267 2.33325 8 2.33325ZM7.99733 4.99925C7.62133 5.37525 7.01133 5.37525 6.63467 4.99925C6.258 4.62325 6.258 4.01259 6.63467 3.63659C7.01067 3.26059 7.62067 3.26059 7.99733 3.63659C8.374 4.01259 8.374 4.62259 7.99733 4.99925Z" fill="#474747"/>
</svg>
