<svg width="7" height="15" viewBox="0 0 7 15" fill="none" xmlns="http://www.w3.org/2000/svg">
<path d="M2.28634 0.765807C2.86597 0.213884 3.69043 0.0274681 4.46817 0.00423375C5.29071 -0.00316226 6.11293 0.00131148 6.93548 0.00163618C6.93872 0.869351 6.93901 1.73739 6.93515 2.60507C6.40358 2.60413 5.87164 2.60637 5.34007 2.60413C5.00299 2.58313 4.65685 2.83864 4.59559 3.17279C4.58751 3.7534 4.59267 4.33433 4.593 4.91497C5.37264 4.91818 6.15229 4.914 6.9319 4.91692C6.87483 5.75685 6.77064 6.59296 6.6484 7.42583C5.95974 7.43229 5.27069 7.42518 4.58206 7.4294C4.57593 9.9067 4.58528 12.384 4.57723 14.8613C3.55434 14.8655 2.53084 14.8594 1.50799 14.8642C1.48862 12.3866 1.50958 9.90768 1.49735 7.42972C0.998317 7.42453 0.498996 7.4333 0 7.42554C0.00191214 6.59268 0.000648891 5.75985 0.000937516 4.92727C0.499609 4.92118 0.998642 4.92857 1.49735 4.92374C1.5125 4.11407 1.48216 3.30347 1.51315 2.49449C1.56316 1.85381 1.80733 1.20834 2.28634 0.765807Z" fill="black"/>
</svg>
