<svg width="18" height="13" viewBox="0 0 18 13" fill="none" xmlns="http://www.w3.org/2000/svg">
<path d="M9.02489 12.0829L5.47889 12.0173C4.33078 11.9944 3.17981 12.0401 2.0542 11.8031C0.341901 11.4492 0.220595 9.71351 0.0936618 8.25763C-0.0812397 6.21085 -0.0135301 4.12691 0.316531 2.09721C0.502862 0.958338 1.23615 0.278763 2.37015 0.204812C6.19824 -0.0635655 10.0518 -0.0317599 13.8714 0.093448C14.2748 0.104926 14.681 0.167661 15.0787 0.239071C17.0422 0.587358 17.0901 2.55423 17.2174 4.20997C17.3443 5.8828 17.2907 7.56422 17.0481 9.22565C16.8535 10.6013 16.4811 11.7549 14.9095 11.8662C12.9403 12.0119 11.0164 12.1291 9.04178 12.0918C9.04186 12.0829 9.03052 12.0829 9.02489 12.0829ZM6.94019 8.60023C8.42408 7.73805 9.87966 6.89025 11.3551 6.03386C9.8684 5.17168 8.41559 4.32388 6.94019 3.46749V8.60023Z" fill="black"/>
</svg>
