<svg width="16" height="15" viewBox="0 0 16 15" fill="none" xmlns="http://www.w3.org/2000/svg">
<path d="M7.73483 1.33964C9.7192 1.33964 9.95455 1.34707 10.7386 1.38299C12.7527 1.47465 13.6935 2.4303 13.7852 4.42953C13.8211 5.213 13.8279 5.44835 13.8279 7.43272C13.8279 9.41771 13.8205 9.65244 13.7852 10.4359C13.6929 12.4333 12.7546 13.3908 10.7386 13.4824C9.95455 13.5184 9.72044 13.5258 7.73483 13.5258C5.75046 13.5258 5.51511 13.5184 4.73165 13.4824C2.71259 13.3902 1.77677 12.4302 1.6851 10.4353C1.64918 9.65182 1.64175 9.41709 1.64175 7.4321C1.64175 5.44773 1.6498 5.213 1.6851 4.42891C1.77739 2.4303 2.71569 1.47403 4.73165 1.38237C5.51573 1.34707 5.75046 1.33964 7.73483 1.33964ZM7.73483 0C5.7164 0 5.46371 0.00867078 4.67095 0.0445926C1.97186 0.168461 0.471815 1.66603 0.347946 4.3676C0.311405 5.16097 0.302734 5.41366 0.302734 7.4321C0.302734 9.45053 0.311405 9.70384 0.347327 10.4966C0.471195 13.1957 1.96876 14.6957 4.67033 14.8196C5.46371 14.8555 5.7164 14.8642 7.73483 14.8642C9.75327 14.8642 10.0066 14.8555 10.7993 14.8196C13.4959 14.6957 14.9997 13.1982 15.1217 10.4966C15.1583 9.70384 15.1669 9.45053 15.1669 7.4321C15.1669 5.41366 15.1583 5.16097 15.1223 4.36822C15.0009 1.6716 13.5015 0.16908 10.8 0.0452119C10.0066 0.00867078 9.75327 0 7.73483 0ZM7.73483 3.61572C5.62721 3.61572 3.91845 5.32448 3.91845 7.4321C3.91845 9.53972 5.62721 11.2491 7.73483 11.2491C9.84245 11.2491 11.5512 9.54034 11.5512 7.4321C11.5512 5.32448 9.84245 3.61572 7.73483 3.61572ZM7.73483 9.90947C6.36671 9.90947 5.25747 8.80084 5.25747 7.4321C5.25747 6.06397 6.36671 4.95473 7.73483 4.95473C9.10296 4.95473 10.2122 6.06397 10.2122 7.4321C10.2122 8.80084 9.10296 9.90947 7.73483 9.90947ZM11.7023 2.57336C11.2093 2.57336 10.8099 2.97284 10.8099 3.46522C10.8099 3.95759 11.2093 4.35707 11.7023 4.35707C12.1947 4.35707 12.5936 3.95759 12.5936 3.46522C12.5936 2.97284 12.1947 2.57336 11.7023 2.57336Z" fill="white"/>
</svg>
