<svg width="36" height="36" viewBox="0 0 36 36" fill="none" xmlns="http://www.w3.org/2000/svg">
<path d="M35.9999 17C36.0068 19.6398 35.3901 22.2438 34.1999 24.6C32.7888 27.4235 30.6195 29.7984 27.9349 31.4586C25.2503 33.1188 22.1565 33.9988 19 34C16.3602 34.0069 13.7562 33.3901 11.4 32.2L0 36L3.79999 24.6C2.60986 22.2438 1.99311 19.6398 2 17C2.00122 13.8435 2.88122 10.7497 4.54143 8.06514C6.20164 5.38055 8.5765 3.21119 11.4 1.80005C13.7562 0.609918 16.3602 -0.00682552 19 5.69761e-05H20C24.1687 0.23004 28.106 1.98958 31.0582 4.94177C34.0104 7.89396 35.77 11.8313 35.9999 16V17Z" fill="white"/>
</svg>
