<svg width="16" height="15" viewBox="0 0 16 15" fill="none" xmlns="http://www.w3.org/2000/svg">
<path d="M0.388672 7.43216C0.388672 10.4755 2.2187 13.0899 4.83739 14.2394C4.81649 13.7204 4.83367 13.0974 4.96675 12.5328C5.10965 11.9294 5.92305 8.48299 5.92305 8.48299C5.92305 8.48299 5.68563 8.00844 5.68563 7.3071C5.68563 6.2057 6.32397 5.38312 7.11897 5.38312C7.795 5.38312 8.1216 5.89088 8.1216 6.49892C8.1216 7.17849 7.68816 8.19499 7.46526 9.13648C7.27905 9.92486 7.86055 10.5679 8.6383 10.5679C10.0464 10.5679 10.9948 8.75931 10.9948 6.61644C10.9948 4.98754 9.89774 3.76834 7.9023 3.76834C5.64783 3.76834 4.24335 5.44961 4.24335 7.32759C4.24335 7.97511 4.43426 8.43172 4.73328 8.78532C4.87078 8.94772 4.88988 9.01304 4.84012 9.19954C4.80447 9.33628 4.7226 9.66549 4.68869 9.79596C4.63922 9.9842 4.48669 10.0515 4.31657 9.98199C3.27817 9.55808 2.79456 8.42092 2.79456 7.1426C2.79456 5.03138 4.57512 2.49984 8.10627 2.49984C10.9438 2.49984 12.8114 4.55317 12.8114 6.7573C12.8114 9.67281 11.1905 11.8509 8.80123 11.8509C7.99886 11.8509 7.2441 11.4172 6.98554 10.9245C6.98554 10.9245 6.55408 12.6369 6.46269 12.9676C6.3051 13.5406 5.99667 14.1133 5.71466 14.5597C6.38308 14.757 7.08918 14.8645 7.82101 14.8645C11.9251 14.8645 15.2528 11.537 15.2528 7.43216C15.2528 3.32752 11.9251 0 7.82101 0C3.71649 0 0.388672 3.32752 0.388672 7.43216Z" fill="white"/>
</svg>
