<svg width="29" height="28" viewBox="0 0 29 28" fill="none" xmlns="http://www.w3.org/2000/svg">
<circle cx="14.7998" cy="14" r="13.5" stroke="white"/>
<path d="M23.9419 8.32021C23.2684 8.61742 22.5448 8.8183 21.7852 8.90864C22.5605 8.44613 23.1558 7.71379 23.4362 6.8412C22.7107 7.2694 21.9071 7.5804 21.0518 7.74803C20.3668 7.02175 19.391 6.5679 18.311 6.5679C16.2372 6.5679 14.556 8.24106 14.556 10.3048C14.556 10.5977 14.5892 10.8829 14.6532 11.1564C11.5325 11.0005 8.76573 9.5128 6.91375 7.25194C6.59054 7.80386 6.40537 8.4458 6.40537 9.13064C6.40537 10.4271 7.06833 11.5709 8.07586 12.241C7.4603 12.2216 6.88135 12.0535 6.37504 11.7737C6.37478 11.7892 6.37478 11.8049 6.37478 11.8206C6.37478 13.6312 7.6691 15.1416 9.38685 15.4849C9.07174 15.5703 8.74002 15.6159 8.39753 15.6159C8.15559 15.6159 7.92034 15.5925 7.69112 15.5489C8.16891 17.0336 9.55562 18.114 11.1987 18.1441C9.91364 19.1464 8.29457 19.7438 6.53538 19.7438C6.23232 19.7438 5.9334 19.7262 5.63965 19.6916C7.30137 20.7519 9.27512 21.3705 11.3956 21.3705C18.3022 21.3705 22.079 15.6763 22.079 10.7381C22.079 10.5761 22.0754 10.4149 22.0682 10.2547C22.8018 9.7278 23.4384 9.06961 23.9419 8.32021Z" fill="white"/>
</svg>
