<svg width="29" height="28" viewBox="0 0 29 28" fill="none" xmlns="http://www.w3.org/2000/svg">
<path d="M14.7993 7.90754C16.7837 7.90754 17.019 7.91497 17.8031 7.95089C19.8172 8.04255 20.758 8.9982 20.8496 10.9974C20.8856 11.7809 20.8924 12.0163 20.8924 14.0006C20.8924 15.9856 20.8849 16.2203 20.8496 17.0038C20.7574 19.0012 19.8191 19.9587 17.8031 20.0503C17.019 20.0863 16.7849 20.0937 14.7993 20.0937C12.8149 20.0937 12.5796 20.0863 11.7961 20.0503C9.77705 19.9581 8.84122 18.9981 8.74956 17.0032C8.71364 16.2197 8.7062 15.985 8.7062 14C8.7062 12.0156 8.71426 11.7809 8.74956 10.9968C8.84184 8.9982 9.78014 8.04193 11.7961 7.95027C12.5802 7.91497 12.8149 7.90754 14.7993 7.90754ZM14.7993 6.5679C12.7809 6.5679 12.5282 6.57657 11.7354 6.61249C9.03631 6.73636 7.53627 8.23393 7.4124 10.9355C7.37586 11.7289 7.36719 11.9816 7.36719 14C7.36719 16.0184 7.37586 16.2717 7.41178 17.0645C7.53565 19.7636 9.03322 21.2636 11.7348 21.3875C12.5282 21.4234 12.7809 21.4321 14.7993 21.4321C16.8177 21.4321 17.071 21.4234 17.8638 21.3875C20.5604 21.2636 22.0642 19.7661 22.1862 17.0645C22.2227 16.2717 22.2314 16.0184 22.2314 14C22.2314 11.9816 22.2227 11.7289 22.1868 10.9361C22.0654 8.2395 20.566 6.73698 17.8644 6.61311C17.071 6.57657 16.8177 6.5679 14.7993 6.5679ZM14.7993 10.1836C12.6917 10.1836 10.9829 11.8924 10.9829 14C10.9829 16.1076 12.6917 17.817 14.7993 17.817C16.9069 17.817 18.6157 16.1082 18.6157 14C18.6157 11.8924 16.9069 10.1836 14.7993 10.1836ZM14.7993 16.4774C13.4312 16.4774 12.3219 15.3687 12.3219 14C12.3219 12.6319 13.4312 11.5226 14.7993 11.5226C16.1674 11.5226 17.2767 12.6319 17.2767 14C17.2767 15.3687 16.1674 16.4774 14.7993 16.4774ZM18.7668 9.14127C18.2738 9.14127 17.8743 9.54074 17.8743 10.0331C17.8743 10.5255 18.2738 10.925 18.7668 10.925C19.2592 10.925 19.658 10.5255 19.658 10.0331C19.658 9.54074 19.2592 9.14127 18.7668 9.14127Z" fill="white"/>
<circle cx="14.7998" cy="14" r="13.5" stroke="white"/>
</svg>
