<svg width="29" height="28" viewBox="0 0 29 28" fill="none" xmlns="http://www.w3.org/2000/svg">
<path d="M15.1831 20.0335L11.6371 19.9679C10.489 19.945 9.33801 19.9907 8.21241 19.7538C6.5001 19.3998 6.3788 17.6641 6.25186 16.2083C6.07696 14.1615 6.14467 12.0775 6.47473 10.0478C6.66107 8.90896 7.39435 8.22939 8.52835 8.15543C12.3564 7.88706 16.21 7.91886 20.0296 8.04407C20.433 8.05555 20.8392 8.11828 21.2369 8.18969C23.2004 8.53798 23.2483 10.5049 23.3756 12.1606C23.5025 13.8334 23.4489 15.5148 23.2063 17.1763C23.0117 18.5519 22.6393 19.7055 21.0677 19.8169C19.0985 19.9625 17.1746 20.0797 15.2 20.0424C15.2001 20.0335 15.1887 20.0335 15.1831 20.0335ZM13.0984 16.5508C14.5823 15.6887 16.0379 14.8409 17.5133 13.9845C16.0266 13.1223 14.5738 12.2745 13.0984 11.4181V16.5508Z" fill="white"/>
<circle cx="14.7998" cy="14" r="13.5" stroke="white"/>
</svg>
