<svg width="29" height="28" viewBox="0 0 29 28" fill="none" xmlns="http://www.w3.org/2000/svg">
<path d="M13.6291 7.33371C14.2087 6.78179 15.0332 6.59537 15.8109 6.57214C16.6335 6.56474 17.4557 6.56921 18.2782 6.56954C18.2815 7.43725 18.2818 8.30529 18.2779 9.17297C17.7463 9.17203 17.2144 9.17427 16.6828 9.17203C16.3458 9.15104 15.9996 9.40654 15.9384 9.7407C15.9303 10.3213 15.9354 10.9022 15.9358 11.4829C16.7154 11.4861 17.4951 11.4819 18.2747 11.4848C18.2176 12.3248 18.1134 13.1609 17.9912 13.9937C17.3025 14.0002 16.6135 13.9931 15.9248 13.9973C15.9187 16.4746 15.928 18.9519 15.92 21.4292C14.8971 21.4334 13.8736 21.4273 12.8508 21.4321C12.8314 18.9545 12.8524 16.4756 12.8401 13.9976C12.3411 13.9924 11.8418 14.0012 11.3428 13.9934C11.3447 13.1606 11.3434 12.3277 11.3437 11.4952C11.8424 11.4891 12.3414 11.4965 12.8401 11.4916C12.8553 10.682 12.8249 9.87137 12.8559 9.06239C12.9059 8.42172 13.1501 7.77624 13.6291 7.33371Z" fill="white"/>
<circle cx="14.7998" cy="14" r="13.5" stroke="white"/>
</svg>
