<svg width="29" height="28" viewBox="0 0 29 28" fill="none" xmlns="http://www.w3.org/2000/svg">
<path d="M7.37305 13.8272C7.37305 16.8706 9.20307 19.485 11.8218 20.6345C11.8009 20.1155 11.818 19.4925 11.9511 18.9278C12.094 18.3245 12.9074 14.8781 12.9074 14.8781C12.9074 14.8781 12.67 14.4035 12.67 13.7022C12.67 12.6008 13.3083 11.7782 14.1033 11.7782C14.7794 11.7782 15.106 12.286 15.106 12.894C15.106 13.5736 14.6725 14.5901 14.4496 15.5316C14.2634 16.3199 14.8449 16.963 15.6227 16.963C17.0308 16.963 17.9792 15.1544 17.9792 13.0115C17.9792 11.3826 16.8821 10.1634 14.8867 10.1634C12.6322 10.1634 11.2277 11.8447 11.2277 13.7227C11.2277 14.3702 11.4186 14.8268 11.7177 15.1804C11.8552 15.3428 11.8743 15.4081 11.8245 15.5946C11.7888 15.7314 11.707 16.0606 11.6731 16.191C11.6236 16.3793 11.4711 16.4466 11.3009 16.3771C10.2625 15.9532 9.77894 14.816 9.77894 13.5377C9.77894 11.4265 11.5595 8.89492 15.0906 8.89492C17.9282 8.89492 19.7958 10.9483 19.7958 13.1524C19.7958 16.0679 18.1749 18.246 15.7856 18.246C14.9832 18.246 14.2285 17.8123 13.9699 17.3196C13.9699 17.3196 13.5385 19.032 13.4471 19.3627C13.2895 19.9357 12.981 20.5084 12.699 20.9548C13.3675 21.1521 14.0736 21.2596 14.8054 21.2596C18.9095 21.2596 22.2372 17.9321 22.2372 13.8272C22.2372 9.72261 18.9095 6.39508 14.8054 6.39508C10.7009 6.39508 7.37305 9.72261 7.37305 13.8272Z" fill="white"/>
<circle cx="14.7998" cy="14" r="13.5" stroke="white"/>
</svg>
