<svg width="19" height="15" viewBox="0 0 19 15" fill="none" xmlns="http://www.w3.org/2000/svg">
<path d="M18.3022 1.75231C17.6288 2.04952 16.9051 2.2504 16.1456 2.34074C16.9209 1.87823 17.5162 1.14588 17.7966 0.273296C17.0711 0.701496 16.2675 1.0125 15.4122 1.18013C14.7272 0.45385 13.7513 0 12.6714 0C10.5976 0 8.91632 1.67316 8.91632 3.73687C8.91632 4.02975 8.9496 4.31497 9.0136 4.58847C5.89287 4.43263 3.12608 2.9449 1.2741 0.68404C0.950893 1.23596 0.765721 1.87789 0.765721 2.56273C0.765721 3.85919 1.42868 5.00301 2.43621 5.67313C1.82065 5.65374 1.2417 5.48564 0.735395 5.20575C0.735128 5.22134 0.735128 5.237 0.735128 5.25272C0.735128 7.06333 2.02945 8.57372 3.7472 8.91697C3.43209 9.00238 3.10038 9.04802 2.75788 9.04802C2.51594 9.04802 2.2807 9.02463 2.05148 8.981C2.52926 10.4657 3.91597 11.5461 5.55908 11.5762C4.274 12.5785 2.65492 13.1759 0.895729 13.1759C0.592668 13.1759 0.293756 13.1583 0 13.1237C1.66172 14.184 3.63547 14.8026 5.75597 14.8026C12.6626 14.8026 16.4394 9.10838 16.4394 4.1702C16.4394 4.00817 16.4358 3.847 16.4285 3.68677C17.1621 3.15989 17.7988 2.50171 18.3022 1.75231Z" fill="white"/>
</svg>
