<svg width="37" height="36" viewBox="0 0 37 36" fill="none" xmlns="http://www.w3.org/2000/svg">
<path d="M5.30306 28.7485L5.46598 28.2608L5.16414 27.8446C3.15965 25.0803 1.98047 21.6763 1.98047 18.0001C1.98047 8.73291 9.48372 1.20264 18.6996 1.20264H18.7085C27.9242 1.20264 35.4276 8.73506 35.4276 18.0001C35.4276 27.2652 27.9242 34.7976 18.7085 34.7976C15.3069 34.7976 12.1555 33.7824 9.51215 32.0239L9.11117 31.7572L8.65264 31.9044L3.71977 33.4879L5.30306 28.7485Z" fill="#4CAF50" stroke="white" stroke-width="2"/>
<path d="M29.0219 25.3349C28.5944 26.5474 26.8973 27.5529 25.5437 27.8466C24.6176 28.0446 23.408 28.2026 19.336 26.5073C14.1275 24.3405 10.7733 19.0257 10.5119 18.6809C10.2616 18.3361 8.40723 15.8667 8.40723 13.3127C8.40723 10.7588 9.69883 9.51518 10.2195 8.98126C10.647 8.543 11.3538 8.34277 12.0317 8.34277C12.251 8.34277 12.4482 8.3539 12.6254 8.3628C13.1461 8.38504 13.4075 8.41619 13.7509 9.24155C14.1785 10.276 15.2197 12.83 15.3438 13.0925C15.4701 13.355 15.5963 13.7109 15.4191 14.0558C15.253 14.4117 15.1067 14.5697 14.8453 14.8722C14.5839 15.1748 14.3358 15.4062 14.0743 15.731C13.8351 16.0135 13.5648 16.3161 13.8661 16.8389C14.1674 17.3505 15.2086 19.0569 16.7417 20.4273C18.7201 22.1959 20.3241 22.761 20.8979 23.0012C21.3255 23.1792 21.835 23.1369 22.1474 22.8032C22.544 22.3739 23.0336 21.662 23.5321 20.9612C23.8865 20.4584 24.3341 20.3961 24.8037 20.5741C25.2823 20.7409 27.8145 21.9979 28.3351 22.2582C28.8558 22.5207 29.1992 22.6453 29.3255 22.8655C29.4495 23.0858 29.4495 24.1202 29.0219 25.3349Z" fill="#FAFAFA"/>
</svg>
