<svg width="18" height="13" viewBox="0 0 18 13" fill="none" xmlns="http://www.w3.org/2000/svg">
<path d="M9.12938 12.0829L5.58339 12.0173C4.43527 11.9944 3.2843 12.0401 2.1587 11.8031C0.446393 11.4492 0.325087 9.71351 0.198154 8.25763C0.0232525 6.21085 0.0909621 4.12691 0.421024 2.09721C0.607354 0.958338 1.34064 0.278763 2.47464 0.204812C6.30273 -0.0635655 10.1563 -0.0317599 13.9759 0.093448C14.3793 0.104926 14.7855 0.167661 15.1832 0.239071C17.1467 0.587358 17.1946 2.55423 17.3219 4.20997C17.4488 5.8828 17.3952 7.56422 17.1526 9.22565C16.958 10.6013 16.5856 11.7549 15.014 11.8662C13.0448 12.0119 11.1209 12.1291 9.14627 12.0918C9.14635 12.0829 9.13501 12.0829 9.12938 12.0829ZM7.04468 8.60023C8.52857 7.73805 9.98415 6.89025 11.4596 6.03386C9.97289 5.17168 8.52009 4.32388 7.04468 3.46749V8.60023Z" fill="white"/>
</svg>
